<svg width="100" height="80" viewBox="0 0 100 80" fill="none" xmlns="http://www.w3.org/2000/svg">
<circle cx="48.4462" cy="35.5827" r="29.7141" fill="white"/>
<g clip-path="url(#clip0_131_1103)">
<path d="M66.3867 58.7517C66.5362 58.6163 66.6174 58.4204 66.5988 58.2196C66.2201 54.0106 62.1878 49.0654 58.1386 47.8411C58.0966 47.8248 58.0506 47.831 58.0078 47.8289C56.5622 46.6315 54.7074 45.5651 52.8271 44.8374C55.527 44.592 58.2469 44.6932 60.9172 45.1576C60.9366 45.17 60.9443 45.1875 60.9637 45.1999C64.8605 47.6476 69.7041 48.6344 74.256 47.91C74.5036 47.8709 74.7038 47.6924 74.7729 47.4531C74.8419 47.2137 74.7634 46.9556 74.5743 46.7948C70.8799 43.6659 65.6637 42.4178 60.9547 43.5456C60.79 43.5831 60.6619 43.6881 60.5726 43.8179C58.8607 43.5527 57.1358 43.4325 55.407 43.4463C57.2546 41.5619 58.625 39.2251 59.3653 36.6914C59.409 36.6164 59.456 36.5331 59.4997 36.4581C59.5905 36.2998 59.6081 36.1179 59.5589 35.9584C59.6341 35.6536 59.695 35.3482 59.7533 35.0369C59.7899 34.8188 59.7151 34.6009 59.5538 34.4557C59.3925 34.3106 59.1667 34.2565 58.9553 34.3145C55.0782 35.3696 52.3058 39.5901 52.8533 43.5648C51.7745 43.6624 50.7019 43.8061 49.6408 44.0074C49.609 44.0144 49.5805 44.013 49.5488 44.0199C46.4749 44.6037 43.4879 45.6231 40.7038 47.0411C41.0164 46.7853 41.3349 46.527 41.6392 46.268C44.883 43.5333 48.727 39.8174 52.6666 35.7321C54.8684 34.3051 59.1664 31.7972 63.7117 29.5987C63.6794 29.7313 63.6781 29.8712 63.7346 29.9997C63.7474 30.0289 63.7602 30.0581 63.7815 30.0906C64.5316 31.259 65.552 32.2182 66.7219 32.9305C69.3572 35.1869 73.1371 36.0836 76.4857 35.0308C76.6945 34.9669 76.8572 34.7979 76.908 34.5805C76.9614 34.3689 76.9041 34.1433 76.7552 33.9788C73.8926 30.9513 69.9042 29.0246 65.7561 28.638C67.5356 27.8355 69.3082 27.1126 70.9616 26.5466C71.098 26.6191 71.2507 26.6496 71.4095 26.6146C71.4721 26.6777 71.5437 26.7299 71.6278 26.7626C76.4339 28.7901 82.1178 28.6762 86.8406 26.4694C87.0684 26.3693 87.2145 26.131 87.2098 25.8822C87.205 25.6335 87.0564 25.4062 86.8243 25.3061C82.4334 23.4307 77.3013 23.2464 72.7564 24.748C72.6632 24.7263 72.5635 24.7213 72.4649 24.7507C67.368 26.1534 60.6424 29.5743 55.9648 32.249C59.1365 28.8424 62.2802 25.3087 65.1356 21.9434C65.2227 22.0306 65.3273 22.11 65.4573 22.1365C70.4212 23.175 75.8917 21.2111 79.0626 17.2474C79.215 17.0551 79.2427 16.7851 79.1419 16.5716C79.0386 16.3522 78.8145 16.2068 78.5658 16.2116C74.5644 16.2064 70.6202 17.3467 67.2366 19.446C68.9536 17.3751 70.5282 15.4084 71.8942 13.617C71.9493 13.5998 72.007 13.5884 72.0603 13.551C76.4488 10.7734 79.6624 6.06644 80.6536 0.963094C80.7025 0.725607 80.609 0.481021 80.4193 0.334466C80.2295 0.18791 79.9679 0.163454 79.7486 0.266777C77.4268 1.40502 74.8007 2.6909 72.8565 4.73625C71.1023 6.5797 69.5727 9.64826 70.5484 12.7102C70.5587 12.7336 70.5663 12.7511 70.5766 12.7745C70.6177 12.8679 70.6769 12.9394 70.7537 13.0032C69.15 15.0941 67.2687 17.4254 65.2159 19.8737C65.5463 15.9942 64.5137 12.0097 62.312 8.78955C62.1762 8.59141 61.9441 8.4913 61.7115 8.51685C61.473 8.54495 61.2793 8.70668 61.1941 8.92523C60.0553 11.9476 60.2313 15.4096 61.5268 18.3589C62.0475 19.5445 62.7468 20.6448 63.6189 21.5994C63.646 21.6293 63.6738 21.6449 63.7041 21.6664C61.2017 24.598 58.4934 27.6478 55.7492 30.6159C55.899 27.1501 54.6487 23.6374 52.2679 21.0881C52.146 20.9535 51.9695 20.8848 51.7895 20.8872C51.6722 20.8899 51.5729 20.9335 51.4729 20.9914C51.4393 20.9783 51.4148 20.9542 51.3753 20.9437C51.037 20.8554 50.6896 21.0638 50.6013 21.4021C50.0689 23.4892 50.1543 25.73 50.7794 27.8033C50.9412 28.5683 51.1724 29.3168 51.488 30.0351C51.9472 31.0805 52.564 32.0567 53.3298 32.9117C53.3157 33.0224 53.3016 33.1331 53.2875 33.2438C49.3112 37.4358 45.37 41.3268 41.9774 44.294C42.5252 42.9874 42.8939 41.6062 43.073 40.1898C43.0971 40.1653 43.127 40.1383 43.1485 40.1079C45.7142 35.9085 46.8519 30.901 46.3557 26.012C46.3316 25.7509 46.1479 25.5389 45.906 25.4641C45.6583 25.3917 45.3885 25.4754 45.2244 25.6729C43.6785 27.5781 42.0805 29.555 41.1562 31.9397C40.2476 34.2965 40.2318 36.735 41.0783 38.6623C41.2143 38.9719 41.3711 39.2653 41.5486 39.5426C41.6174 39.6517 41.7253 39.7228 41.8397 39.7771C41.5792 42.1976 40.703 44.5333 39.307 46.5259C39.307 46.5259 39.3037 46.5344 39.3005 46.5428C35.183 49.8423 30.711 52.7471 26.0072 55.2034C27.7658 52.3547 28.122 48.6451 26.8427 45.5422C26.7485 45.3119 26.4889 45.1333 26.2168 45.1483C25.9447 45.1633 25.7127 45.3489 25.6396 45.6108C25.3384 46.6698 24.7934 47.6338 24.2112 48.6559C23.8261 49.3336 23.4312 50.0366 23.1061 50.7716C22.4453 52.2811 22.1071 54.255 22.81 55.8553C22.9228 56.1123 23.0708 56.3538 23.242 56.5852C19.6406 58.2995 15.9236 59.7509 12.1329 60.9074C11.7963 61.0134 11.6043 61.3695 11.7103 61.7061C11.7206 61.7295 11.7309 61.7528 11.7411 61.7762C11.8694 62.0682 12.1958 62.2244 12.509 62.1286C19.9803 59.8502 27.1877 56.4476 33.7578 52.1334C33.7529 52.2331 33.7621 52.3336 33.8032 52.427C33.8468 52.5263 33.9138 52.6153 34.0132 52.6831C37.1801 54.9917 41.2463 56.1597 45.1564 55.8775C45.4 55.861 45.6105 55.7059 45.7047 55.4763C45.7932 55.2494 45.749 54.9901 45.5865 54.8106C43.4394 52.4444 40.3914 50.9615 37.2256 50.6381C40.9356 47.9495 45.2513 46.1166 49.7584 45.2586C52.3433 45.7187 55.3241 47.1754 57.3348 48.8979C57.3104 48.9852 57.3003 49.0733 57.3129 49.1653C57.4908 50.2367 57.798 51.2374 58.2033 52.1602C59.8375 55.8805 63.0743 58.3325 65.8569 58.8938C66.0549 58.9323 66.2605 58.8768 66.41 58.7414L66.3867 58.7517ZM69.5472 46.7386L69.7639 46.8036C69.4739 46.7778 69.1897 46.7493 68.9003 46.7092C69.114 46.7198 69.3277 46.7305 69.5388 46.7353L69.5472 46.7386ZM84.3085 26.0976C84.3085 26.0976 84.2475 26.1174 84.2158 26.1244L84.2106 26.1127L84.2994 26.1086L84.3085 26.0976ZM75.4686 26.6083L75.6059 26.6038C75.6059 26.6038 75.6078 26.6238 75.6071 26.6381C75.5618 26.6301 75.5165 26.6222 75.4712 26.6142L75.4686 26.6083ZM80.0079 25.0465L76.0529 25.2579C77.3569 25.0543 78.6914 24.9837 80.0079 25.0465ZM75.2453 18.9938C75.2453 18.9938 75.2233 18.9756 75.2065 18.969C75.3357 18.8983 75.4649 18.8277 75.5915 18.7511C75.4733 18.8309 75.3576 18.9166 75.2369 18.9905L75.2453 18.9938ZM77.0599 17.5418C77.03 17.5689 76.9968 17.6044 76.9669 17.6315C76.9683 17.603 76.9697 17.5745 76.9712 17.546C76.9997 17.5474 77.0314 17.5404 77.0599 17.5418ZM61.9747 10.6864C62.0326 10.7864 62.0787 10.8916 62.1366 10.9916C62.0923 10.9065 62.0272 10.8376 61.9555 10.7855C61.9628 10.7544 61.97 10.7233 61.9773 10.6923L61.9747 10.6864ZM63.8077 17.5243C63.8105 17.4673 63.8134 17.4103 63.8078 17.3501C63.8604 17.327 63.9078 17.2922 63.9468 17.2542C63.9732 17.5839 63.988 17.9189 63.991 18.2589L63.8077 17.5243ZM45.1464 28.5567C45.1414 28.3708 45.0586 28.1981 44.9244 28.0829C45.0039 27.9783 45.0833 27.8738 45.1654 27.775C45.1694 28.038 45.1709 28.2951 45.1665 28.5548C45.1607 28.5574 45.1548 28.56 45.1431 28.5651L45.1464 28.5567ZM41.7574 34.7202C41.7543 34.84 41.7545 34.9514 41.7572 35.0687L41.7259 35.1242C41.7356 34.9876 41.7478 34.8568 41.7574 34.7202ZM41.7736 36.5176C41.8551 36.5445 41.9398 36.563 42.0202 36.5556L41.8855 37.1373C41.8385 36.935 41.8031 36.7276 41.7736 36.5176ZM25.8579 48.2809C25.9526 48.1 26.0506 47.9106 26.1427 47.7238C26.17 47.8652 26.1914 48.009 26.2128 48.1529C26.096 48.2042 25.992 48.2847 25.9209 48.3926C25.903 48.3517 25.885 48.3108 25.8554 48.2751L25.8579 48.2809ZM63.4204 44.4482C63.4259 44.5085 63.4348 44.5603 63.452 44.6155C63.2883 44.5759 63.1221 44.5305 62.9558 44.4851C63.1081 44.467 63.2629 44.4547 63.4178 44.4424L63.4204 44.4482ZM67.0152 31.457L67.6373 31.6994C67.6373 31.6994 67.6293 31.7447 67.6227 31.7615C67.6129 31.7867 67.5921 31.8028 67.5823 31.828C67.5692 31.8617 67.5729 31.9018 67.5682 31.9387C67.5126 31.9074 67.4688 31.8709 67.419 31.837C67.2823 31.716 67.1429 31.5891 67.0152 31.457ZM72.016 11.975L72.2909 11.6174C72.2698 11.6963 72.2688 11.7734 72.2763 11.8537C72.208 11.9046 72.1372 11.9496 72.069 12.0005C72.0522 11.994 72.0328 11.9816 72.016 11.975ZM75.7624 4.94385L76.2697 4.16366C76.3903 3.9783 76.3926 3.76133 76.3105 3.57444C76.6145 3.37822 76.9294 3.19111 77.2411 3.01241L75.765 4.94969L75.7624 4.94385ZM77.1898 6.44882C76.6385 7.36678 76.0123 8.24102 75.3151 9.04889L75.9433 8.02051L77.1898 6.44882ZM59.4575 51.8114C59.4241 51.7354 59.3908 51.6595 59.3574 51.5836C59.4167 51.6551 59.4844 51.7299 59.5437 51.8014C59.5152 51.8 59.4893 51.8044 59.4633 51.8088L59.4575 51.8114ZM60.1296 50.3596C60.0407 50.2523 59.927 50.1838 59.8028 50.1548C59.7216 50.0651 59.6462 49.9728 59.565 49.883C60.0669 50.1851 60.5602 50.5467 61.0371 50.9503C60.9532 51.029 60.8996 51.1292 60.8687 51.2333L60.138 50.3629L60.1296 50.3596ZM63.3214 56.4682C63.3214 56.4682 63.3389 56.4605 63.3448 56.458C63.3499 56.4696 63.355 56.4813 63.3602 56.493C63.3492 56.4839 63.3324 56.4773 63.3214 56.4682ZM64.357 57.0654C64.4918 57.0549 64.6306 57.0219 64.7532 56.968C64.8529 56.973 64.9541 56.9494 65.0475 56.9084C65.0934 57.0763 65.1393 57.2443 65.1768 57.409C64.8961 57.3093 64.6246 57.1987 64.3596 57.0712L64.357 57.0654Z" fill="#FF5734"/>
</g>
<defs>
<clipPath id="clip0_131_1103">
<rect width="48.2055" height="87.6909" fill="white" transform="translate(80.3555) rotate(66.287)"/>
</clipPath>
</defs>
</svg>
