<?xml version="1.0" standalone="no"?>
<!DOCTYPE svg PUBLIC "-//W3C//DTD SVG 20010904//EN"
 "http://www.w3.org/TR/2001/REC-SVG-20010904/DTD/svg10.dtd">
<svg version="1.0" xmlns="http://www.w3.org/2000/svg"
 width="192.000000pt" height="192.000000pt" viewBox="0 0 192.000000 192.000000"
 preserveAspectRatio="xMidYMid meet">
<metadata>
Created by potrace 1.14, written by Peter Selinger 2001-2017
</metadata>
<g transform="translate(0.000000,192.000000) scale(0.100000,-0.100000)"
fill="#000000" stroke="none">
<path d="M1485 1698 c-89 -45 -140 -119 -134 -191 3 -26 -6 -45 -41 -90 -25
-31 -48 -57 -52 -57 -5 0 -8 19 -8 43 -1 53 -39 151 -62 155 -13 2 -18 -7 -23
-42 -9 -59 0 -110 31 -165 l24 -43 -49 -57 c-27 -31 -60 -66 -74 -79 l-24 -23
-7 41 c-11 73 -61 151 -86 135 -5 -3 -10 -34 -10 -69 0 -47 6 -75 26 -115 l27
-53 -99 -99 c-54 -54 -102 -99 -106 -99 -9 0 13 70 42 134 15 33 24 77 28 134
6 101 -3 104 -61 20 -45 -64 -55 -117 -37 -192 11 -48 10 -57 -8 -98 -13 -30
-38 -60 -72 -87 -62 -49 -189 -126 -196 -119 -2 3 0 17 6 32 18 48 6 147 -17
146 -5 -1 -23 -32 -42 -71 -27 -56 -32 -78 -28 -111 l5 -40 -51 -22 c-29 -13
-76 -31 -104 -40 -51 -17 -70 -36 -37 -36 31 0 221 81 308 131 l89 51 48 -27
c49 -26 148 -49 174 -39 24 10 2 37 -53 67 -27 15 -59 27 -71 27 -33 0 -16 17
47 49 90 45 159 63 202 51 63 -17 101 -50 122 -107 21 -56 89 -128 133 -139
37 -9 40 -1 20 52 -25 66 -74 116 -163 166 l-77 43 51 3 c29 2 69 -4 92 -13
23 -8 61 -22 85 -31 45 -17 160 -24 174 -11 13 14 -44 55 -100 72 -40 12 -75
14 -154 9 -57 -4 -103 -4 -103 0 0 4 11 22 25 40 32 42 59 116 46 129 -14 14
-71 -22 -98 -61 -12 -18 -24 -49 -28 -70 l-6 -38 -82 -20 c-45 -11 -91 -24
-102 -28 -11 -5 30 41 91 100 87 86 130 120 204 161 l95 52 34 -34 c48 -49
108 -75 169 -75 28 0 53 4 56 9 15 23 -121 110 -171 111 -35 0 -27 15 17 33
35 13 45 13 86 1 88 -26 259 -9 259 26 0 20 -68 38 -149 39 -82 1 -199 -35
-337 -105 -104 -52 -105 -58 11 75 l54 61 56 0 c73 0 135 22 185 64 30 26 37
37 29 46 -15 15 -106 -1 -170 -29 l-45 -20 23 32 c12 18 55 63 94 100 68 65
115 136 130 200 8 33 -5 34 -61 5z"/>
</g>
</svg>
