<svg width="83" height="53" viewBox="0 0 83 53" fill="none" xmlns="http://www.w3.org/2000/svg">
<circle cx="56.5" cy="26.5" r="26.5" fill="white"/>
<g clip-path="url(#clip0_100_221)">
<path d="M80.9713 27.7323C80.9287 27.6579 80.8395 27.636 80.7613 27.6102C80.5631 27.5645 80.362 27.6007 80.1629 27.6045C80.1659 27.6045 80.1679 27.6045 80.1708 27.6045C80.1669 27.6045 80.1629 27.6045 80.1599 27.6045C80.1599 27.6045 80.1599 27.6045 80.1589 27.6045C80.1035 27.6064 80.1015 27.6045 80.1203 27.6045C79.838 27.6064 79.5566 27.6083 79.2743 27.6102C78.7869 27.594 77.0572 27.5721 76.131 27.5388C74.1646 27.3253 72.1882 27.2833 70.2119 27.3386C69.6215 27.3662 69.1311 27.33 68.5575 27.31C68.9003 27.27 69.243 27.2328 69.5858 27.2004C69.1499 27.2118 68.714 27.2299 68.2782 27.2538C68.19 27.2118 68.1008 27.1718 68.0097 27.1337C67.6649 26.9573 67.237 26.5818 66.709 26.3683C65.9323 26.0423 65.1893 25.6448 64.3909 25.3656C63.5993 25.0339 62.8445 24.6269 62.0599 24.2809C60.7156 23.626 59.4059 22.874 57.9408 22.4918C57.4326 22.3517 56.9125 22.2611 56.3934 22.1696C55.8297 22.0686 55.2601 21.9761 54.6845 22.0038C54.5033 22.0038 54.0763 22.1525 54.2051 22.3402C54.9659 23.0256 55.8396 23.6403 56.7312 24.1674C58.0557 24.8423 59.405 25.4742 60.7948 26.0156C61.7458 26.4684 62.7197 26.8992 63.7569 27.1356C64.1224 27.2242 64.5434 27.2967 64.9585 27.3567C64.5672 27.4778 64.1769 27.5988 63.7866 27.7218C63.6766 27.7332 63.5676 27.7456 63.4577 27.7608C62.6533 27.8657 61.8429 27.9362 61.0484 28.0983C60.3857 28.2269 59.4485 28.4414 58.9126 28.5081C58.549 28.5415 58.128 28.5062 57.701 28.4576C57.2196 28.369 56.7471 28.2384 56.2567 28.1955C56.0437 28.1717 55.8188 28.1459 55.589 28.1183C55.4533 28.043 55.3255 27.9582 55.2096 27.8562C54.7123 27.2195 54.3398 26.4855 53.7137 25.946C53.0321 25.315 52.1624 24.9233 51.357 24.461C50.5684 24.0397 49.8145 23.5526 48.9745 23.2267C47.856 22.7558 46.6365 22.5413 45.42 22.508C44.7622 22.4975 44.0965 22.468 43.4437 22.5537C43.2258 22.5976 42.8127 22.7472 42.9533 23.0132C43.093 23.1314 43.3397 23.2867 43.6428 23.4955C44.2114 23.8891 44.7722 24.2952 45.3596 24.6631C45.958 25.0405 46.6098 25.3217 47.2319 25.6563C48.5485 26.4379 49.8195 27.3367 51.2837 27.8476C52.7201 28.3794 54.2536 28.5424 55.7723 28.7111C56.116 28.7455 56.3865 28.8103 56.9541 28.9285C57.3494 28.9895 57.7506 29.0123 58.1508 29.019C58.3965 29.0219 58.6402 29.0047 58.8829 28.9752C58.6332 29.1058 58.3816 29.2325 58.127 29.3545C57.1423 29.7158 56.1715 30.1123 55.2135 30.5345C54.8272 30.6651 54.4379 30.7909 54.0466 30.9053C53.2848 31.1436 52.4467 31.3962 51.8335 31.4591C51.1321 31.5487 50.5199 31.4858 49.76 31.4705C48.6347 31.4715 47.0487 31.3009 46.1838 31.1665C45.3854 31.0654 44.7177 30.9596 43.8766 30.7156C43.6131 30.6384 43.3575 30.5355 43.099 30.443C43.2267 30.2924 43.2713 30.1094 43.1544 29.9074C43.1832 29.5576 43.0266 29.2011 42.6641 29.0562C42.0845 28.8589 41.2762 29.0981 41.0632 29.6891C40.9909 29.9045 40.9314 30.1752 41.0543 30.382C41.2851 30.7271 41.7517 30.871 42.1618 30.8481C42.4412 30.8443 42.8226 30.7118 43.0435 30.5012C43.2198 30.5889 43.3932 30.6832 43.5675 30.7719C43.9578 30.9282 44.3541 31.0674 44.7603 31.1808C45.7103 31.4267 46.6861 31.5859 47.6569 31.7403C48.1394 31.7975 48.6267 31.8242 49.1122 31.8509C49.8918 31.8833 50.6774 31.9452 51.455 31.8785C50.3148 32.2655 49.1676 32.6315 48.0036 32.9518C46.5672 33.3816 45.0793 33.8067 43.3357 33.8801C42.3282 33.943 41.3188 33.8763 40.3123 33.8296C39.7417 33.7982 39.1631 33.8449 38.5985 33.7457C37.906 33.5389 37.2304 33.2749 36.5478 33.0328C36.2338 32.8536 35.9207 32.6744 35.6067 32.4971C35.1144 32.2293 34.6121 31.9786 34.1178 31.7136C34.3169 31.7851 34.517 31.8528 34.7201 31.9147C34.8598 31.9586 34.9994 32.0015 35.1391 32.0453C34.3585 31.6898 33.57 31.3085 32.924 30.748C32.5169 30.3401 32.399 29.7854 32.0959 29.2259C31.767 28.4738 31.3261 27.7751 30.9021 27.0698C30.7278 26.7734 30.5307 26.4912 30.3266 26.2129C30.177 25.9975 30.0254 25.7783 29.8194 25.6086C29.3954 25.2598 28.8565 25.0949 28.3562 24.8737C27.2982 24.4019 26.0946 24.5106 24.9801 24.7069C24.3272 24.8375 23.6269 24.95 23.1296 25.4113C23.0632 25.4504 22.9988 25.5409 23.0612 25.6077C24.3312 27.0088 25.8905 28.1307 27.424 29.2487C27.8638 29.5671 28.696 30.1514 28.9535 30.3363C29.4994 30.7376 30.068 31.1122 30.707 31.3628C32.3891 32.0844 34.1029 32.7297 35.8395 33.3178C36.3259 33.4893 36.8133 33.6609 37.3007 33.8325C37.6019 33.9402 37.8971 34.0755 38.2181 34.1184C38.8144 34.2175 39.4217 34.1747 40.024 34.2071C41.0543 34.2566 42.0865 34.3148 43.1178 34.2576C44.5245 34.209 45.9015 33.9163 47.2517 33.5456C48.9368 33.0518 50.6288 32.5791 52.2773 31.9795C51.8265 32.215 51.3768 32.4532 50.928 32.6934C51.1905 32.5266 51.4521 32.3589 51.7116 32.1892C50.8468 32.6687 49.9671 33.1252 49.0755 33.558C48.4544 33.8315 47.8263 34.0946 47.1923 34.3415C46.9367 34.4244 46.6653 34.5064 46.3552 34.596C45.9659 34.7208 45.6281 34.8161 45.2992 34.9019C45.3873 34.8657 45.4745 34.8295 45.5607 34.7904C47.1418 34.1518 48.708 33.4836 50.2346 32.7306C48.3305 33.5236 46.486 34.2013 44.5185 34.9181C43.5229 35.2088 42.5323 35.5138 41.5407 35.816C41.0592 35.9161 40.5679 36.0181 40.1191 36.122C40.0072 36.1496 39.8843 36.1849 39.7605 36.223C39.073 36.2964 38.3825 36.3574 37.69 36.4098C37.1848 36.4317 36.6796 36.4556 36.1744 36.4775C35.7117 36.4851 35.2511 36.5166 34.7904 36.5518C34.6834 36.549 34.5764 36.5452 34.4695 36.5385C33.3144 36.4727 32.189 36.2154 31.0646 35.9733C29.5103 35.6683 27.9362 35.3976 26.4373 34.8876C25.6616 34.5969 24.9642 34.1461 24.1915 33.8496C22.9344 33.3902 21.6584 32.9641 20.4588 32.3751C19.055 31.6602 17.7395 30.7986 16.408 29.9684C15.4768 29.3774 14.5575 28.7636 13.5679 28.267C12.281 27.6141 10.9209 27.1117 9.57259 26.5904C8.8306 26.313 8.06583 26.0938 7.29609 25.9012C6.57193 25.7096 5.8339 25.5543 5.07903 25.5495C4.51635 25.5419 3.95564 25.4704 3.39296 25.5028C2.37359 25.5943 1.40275 25.9346 0.450745 26.2796C0.323943 26.3101 0.202094 26.3559 0.0921322 26.4245C0.0465626 26.4522 0.00693685 26.496 0.00396492 26.5465C-0.00495088 26.6666 0.185253 26.6876 0.279364 26.6847C0.41211 26.679 0.539903 26.6476 0.665715 26.6066C0.839078 26.5932 1.0164 26.6085 1.18382 26.6504C1.65636 26.7963 2.07243 27.0765 2.49147 27.3253C3.59505 27.9801 4.84029 28.3528 6.09345 28.6444C6.74133 28.7464 7.40705 28.7283 8.06186 28.735C8.87617 28.7245 9.68454 28.6273 10.4979 28.5882C10.9763 28.5815 11.4538 28.6215 11.9323 28.6368C12.3335 28.6311 12.7288 28.6711 13.1171 28.7436C13.5986 28.9952 14.0691 29.2668 14.5238 29.5661C16.0762 30.5412 17.6087 31.5525 19.2155 32.4437C20.5162 33.1424 21.923 33.6237 23.3168 34.1203C23.5238 34.1928 23.7259 34.2776 23.9241 34.3672C23.292 34.2004 22.6501 34.0746 22.0171 33.9144C20.6599 33.6809 19.2324 33.5093 17.8128 33.394C17.2263 33.3635 16.6398 33.334 16.0524 33.334C15.6284 33.3511 15.2064 33.3864 14.7824 33.3931C14.7824 33.3845 14.7824 33.3759 14.7804 33.3664C14.7794 33.3607 14.7764 33.3559 14.7745 33.3502C14.7794 33.3073 14.7804 33.2644 14.7745 33.2224C14.7447 33.1376 14.6962 33.0595 14.6467 32.9842C14.5595 32.8822 14.4258 32.845 14.294 32.8278C14.2138 32.8097 14.1286 32.8021 14.0414 32.8031C14.0325 32.8012 14.0226 32.7992 14.0127 32.7973C13.763 32.7687 13.4906 32.8336 13.2746 32.9708C12.8348 33.1309 12.3722 33.4836 12.4019 33.9764C12.5733 34.7923 13.7561 34.7265 14.3257 34.3519C14.4713 34.2433 14.5872 34.1098 14.6784 33.9554C14.719 33.9144 14.7368 33.8668 14.7299 33.8105V33.8086C15.2638 33.7915 15.7314 33.7381 16.0762 33.7476C17.895 33.7829 19.7772 33.9821 21.5495 34.1518C22.2925 34.2909 23.0434 34.3901 23.7844 34.5407C24.0954 34.6131 24.4075 34.6827 24.7195 34.7513C25.0871 34.9343 25.4556 35.1126 25.8439 35.2498C25.4794 35.1783 25.1148 35.1097 24.7483 35.0525C23.6358 34.8762 22.5124 34.7685 21.385 34.7427C20.228 34.6674 19.0699 34.7275 17.9287 34.9286C16.1495 35.1841 14.4198 35.6845 12.7664 36.3612C11.0754 37.0189 9.44084 37.8253 7.97766 38.8785C7.52097 39.1902 7.10193 39.5486 6.65614 39.8726C6.35498 40.0966 4.51833 41.2357 5.68531 41.1432C5.98944 41.0965 6.26384 40.9478 6.53429 40.8134C6.79186 40.7143 7.05834 40.6352 7.3268 40.5684C7.77458 40.436 8.24117 40.4998 8.70083 40.4779C9.41409 40.4636 10.1264 40.4026 10.8297 40.2863C11.7926 40.1719 12.7377 39.8174 13.4292 39.1473C14.0117 38.6402 14.5536 38.0931 15.1341 37.5851C15.5155 37.1943 15.9563 36.7529 16.2139 36.5699C17.0252 36.0695 17.577 35.8894 18.3784 35.5844C19.0422 35.3022 19.7643 35.226 20.4806 35.1764C20.757 35.1555 21.0334 35.1345 21.3097 35.1145C21.3811 35.1173 21.4534 35.1192 21.5247 35.1211C23.3762 35.1659 25.1911 35.5367 26.999 35.8942C27.949 36.0495 28.8991 36.2068 29.8491 36.3612C30.5079 36.4651 31.1696 36.5585 31.8195 36.7072C32.0988 36.772 32.3574 36.9093 32.6447 36.9436C33.0786 37.0036 33.5204 36.9741 33.9553 36.934C34.0217 36.9274 34.0871 36.9217 34.1534 36.9159C34.1792 36.9169 34.204 36.9188 34.2297 36.9207C35.3373 36.9569 36.4418 36.8673 37.5464 36.7777C36.6251 36.9836 35.5493 37.199 34.9816 37.2638C34.3119 37.3706 34.0177 37.3439 33.2668 37.4697C32.5367 37.6356 31.7491 37.811 31.0755 38.1274C30.1681 38.5935 29.3181 38.9872 28.4959 39.5362C28.4463 39.5076 28.3938 39.4809 28.3374 39.458C28.1511 39.2474 27.7529 39.2445 27.5013 39.3246C27.3269 39.3818 27.1853 39.4837 27.0674 39.6105C26.899 39.7268 26.7613 39.8812 26.678 40.069C26.4294 40.5151 26.7266 40.8315 27.1248 40.9507C27.6687 41.1585 28.3641 40.9621 28.6712 40.4731C28.9654 40.0871 28.8515 39.7687 28.5464 39.5667C29.2012 39.2207 29.8798 38.9185 30.5554 38.6116C30.9447 38.4496 31.3232 38.2589 31.7234 38.1236C32.3207 37.9787 32.9369 37.7967 33.5353 37.7338C34.7508 37.6718 35.9584 37.5012 37.1452 37.24C37.8218 37.0723 38.5113 36.9655 39.1938 36.8216C39.5089 36.7434 39.7486 36.6319 40.0418 36.5423C40.0517 36.5404 40.0606 36.5385 40.0706 36.5366C40.7898 36.4527 41.508 36.3593 42.2203 36.2297C43.4278 35.9437 44.6097 35.5663 45.7608 35.1154C46.3493 34.9372 46.9456 34.7399 47.5816 34.4968C47.4439 34.5702 47.3072 34.6446 47.1695 34.717C44.6582 36.0943 42.0499 37.3287 39.7119 38.9767C38.8124 39.6143 38.007 40.3654 37.2234 41.1299C36.5924 41.7418 35.9435 42.3432 35.4175 43.0438C34.1624 44.7032 33.138 46.6601 33.2153 48.7608C33.2153 49.0763 33.2321 49.3918 33.2599 49.7054C33.2747 49.796 33.2648 49.9161 33.3649 49.959C33.6611 50.0724 33.9751 49.9285 34.2159 49.7617C34.4427 49.6149 34.6696 49.469 34.8964 49.3223C35.7266 48.8171 36.4914 48.2233 37.2135 47.5856C37.7515 47.1319 38.2765 46.6496 38.6539 46.0586C39.2384 45.1903 39.5485 44.1914 39.8169 43.1982C39.9101 42.8332 40.023 42.4738 40.1161 42.1088C40.1875 41.7647 40.2291 41.4149 40.3212 41.0755C40.5282 40.4941 40.654 39.8898 40.8254 39.2988C40.9879 38.9757 41.2633 38.7174 41.5238 38.4658C41.6863 38.319 41.8577 38.1817 42.032 38.0483C41.9557 38.0979 41.8795 38.1465 41.8032 38.196C41.3554 38.4982 40.9076 38.828 40.5807 39.255C40.4569 39.4456 40.3935 39.6658 40.3034 39.8726C40.0171 40.5951 39.6476 41.2843 39.4752 42.0449C38.9828 43.3593 38.5043 45.0645 37.8347 46.0625C37.3859 46.7544 36.7786 47.2463 36.1674 47.7753C35.5285 48.3376 34.8231 48.8199 34.099 49.2727C34.0623 48.6093 34.0772 47.9278 34.1515 47.414C34.3496 46.3026 34.8152 45.2513 35.4007 44.2791C35.6028 43.9312 35.9326 43.4508 36.2823 42.9952C36.7915 42.3347 37.4077 41.7618 38.0061 41.1775C38.7778 40.4178 39.5742 39.6744 40.4718 39.052C42.9266 37.343 45.5894 36.1048 48.2374 34.6369C50.6169 33.3816 52.946 32.0253 55.3958 30.8996C57.6367 30.1209 59.8725 29.3297 62.0965 28.5072C62.6662 28.3585 63.2397 28.2222 63.8153 28.0964C64.0778 28.0601 64.3304 28.0287 64.6098 28.001C62.997 28.4538 61.3823 28.9094 59.8527 29.5842C59.0998 29.9264 58.4242 30.404 57.71 30.8138C57.3692 31.0159 57.0274 31.2151 56.6886 31.42C56.754 31.3733 56.5479 31.4906 56.4855 31.523C56.3627 31.5859 56.2567 31.6726 56.1566 31.7651C55.8485 32.051 55.5256 32.3332 55.2215 32.6305C54.3764 33.2082 53.5512 33.8115 52.7518 34.4434C51.9395 35.1288 51.1915 35.8837 50.4505 36.6386C49.8294 37.3153 49.5817 38.2103 49.1617 39.0015C48.7843 39.7897 48.385 40.5684 48.0472 41.3729C47.9194 41.6713 47.755 41.9582 47.6876 42.2775C47.5677 42.8484 47.8332 43.3984 47.9591 43.9464C48.0928 44.404 48.5029 46.1644 49.0171 46.1463C49.7808 46.1959 49.9067 45.4572 50.1811 44.9454C50.397 44.5536 50.8805 43.9169 51.248 43.3841C51.7483 42.7045 52.2456 42.022 52.6398 41.2776C52.939 40.7772 53.2441 40.2672 53.3987 39.7049C53.6949 38.4629 54.0941 37.2495 54.4854 36.0333C54.7638 35.2622 54.8024 34.4244 55.2234 33.7076C55.3156 33.5046 55.6752 33.109 56.0496 32.7297C56.8243 32.2035 57.5911 31.664 58.4004 31.1894C59.2157 30.7376 60.0707 30.3582 60.9117 29.9541C61.7003 29.5747 62.4898 29.1954 63.2863 28.8293C63.4111 28.7941 63.5369 28.7598 63.6627 28.7254C64.4949 28.471 65.331 28.2327 66.172 28.0068C66.3652 27.9505 66.8269 27.8361 67.2608 27.7837C67.3697 27.7751 67.4797 27.7666 67.5897 27.758C67.6313 27.757 67.6729 27.7561 67.7115 27.758C67.8007 27.7589 67.8958 27.7618 67.9958 27.7647C68.0018 27.7647 68.0067 27.7666 68.0127 27.7666C68.2791 27.8943 68.5427 28.0277 68.8309 28.1059C69.7235 28.3594 70.6725 28.3385 71.5859 28.2031C71.1352 28.4366 70.6527 28.6092 70.1901 28.8198C69.0509 29.366 67.9235 29.9646 66.9873 30.8071C65.8659 31.7489 65.0199 32.9441 64.3225 34.1994C63.736 35.2956 63.1902 36.4498 62.996 37.6775C62.9326 38.1922 63.0178 38.7146 63.1456 39.214C63.1803 39.3141 63.1744 39.4532 63.2823 39.5057C63.3348 39.5285 63.3893 39.5409 63.4468 39.5428C63.9689 39.5867 64.2581 39.132 64.5484 38.7918C64.9476 38.3457 65.3241 37.8796 65.7421 37.4488C67.0329 36.1191 68.3564 34.8142 69.5462 33.3988C70.1396 32.6934 70.4912 31.8385 70.8291 31.0006C70.943 30.4221 71.052 29.834 71.4234 29.3469C71.8395 28.754 72.4091 28.2736 73.0491 27.9153C73.0778 27.901 73.1085 27.8895 73.1392 27.879C73.6336 27.8905 74.1269 27.9191 74.6203 27.9458C76.4965 28.0735 78.3817 28.2508 80.263 28.1135C80.4829 28.1049 80.7127 28.0859 80.896 27.9591C80.9752 27.9114 81.0476 27.8095 80.9752 27.7303L80.9713 27.7323ZM52.2783 27.4501C50.7319 26.9335 49.4153 25.9632 48.0215 25.1635C47.4439 24.8728 46.8535 24.6088 46.3037 24.2675C45.6449 23.8653 45.0178 23.4163 44.3749 22.9912C44.8544 22.996 45.4587 23.0055 45.951 23.0704C46.9248 23.1962 47.5588 23.3792 48.3603 23.728C48.9854 23.9854 49.554 24.3447 50.1494 24.6564C50.9032 25.0472 51.6789 25.398 52.4259 25.8012C53.2778 26.2549 54.0089 27.1079 54.7588 27.9057C54.8203 27.9534 54.8837 27.9953 54.949 28.0363C54.0109 27.9048 53.0302 27.7237 52.2773 27.4511L52.2783 27.4501ZM31.0012 30.8967C30.393 30.6156 30.07 30.3515 29.5876 30.016C29.3211 29.814 28.4691 29.2239 28.0134 28.8913C26.6176 27.8657 25.2109 26.8306 24.0231 25.5791C23.9805 25.5371 23.9409 25.4923 23.9023 25.4475C23.9647 25.398 24.0281 25.3503 24.1014 25.3169C24.2569 25.2521 24.4263 25.2283 24.5898 25.1921C25.0197 25.0996 25.4586 25.0472 25.8974 25.0157C26.7167 24.9862 27.1209 25.0996 27.7261 25.4046C28.0392 25.5524 28.3681 25.6782 28.6484 25.8812C28.8376 25.9899 29.4608 26.8973 29.755 27.3243C30.1255 27.8609 30.5079 28.3918 30.8962 28.917C31.2598 29.4727 31.6075 30.0427 32.0196 30.5669C32.2732 30.891 32.6566 31.0845 33.0271 31.2608C33.252 31.3686 33.4808 31.4658 33.7116 31.5582C34.201 31.93 34.7161 32.2683 35.2491 32.58C33.8117 32.0691 32.395 31.5087 31.0012 30.8948V30.8967ZM11.4231 28.3032C10.372 28.1783 8.78701 28.3604 8.28971 28.3299C7.75179 28.3194 7.21288 28.307 6.67694 28.267C5.78536 28.0554 4.88388 27.8476 4.05273 27.4616C3.21167 27.1327 2.4776 26.4798 1.59692 26.2777C2.10512 26.1119 2.62125 25.966 3.15421 25.9022C3.52174 25.8669 3.89026 25.9165 4.25779 25.9308C5.00573 25.9422 5.75069 26.0004 6.4699 26.211C7.34067 26.4264 8.2065 26.6647 9.04062 26.9907C10.1878 27.4339 11.3409 27.8781 12.4474 28.408C12.1067 28.3699 11.7629 28.3432 11.4231 28.3041V28.3032ZM17.7573 35.4357C17.0004 35.6683 16.2535 35.958 15.5789 36.365C15.0964 36.6929 14.6992 37.1237 14.296 37.5355C13.7234 38.0426 13.1884 38.5887 12.6149 39.0958C12.4504 39.2664 11.8996 39.6668 11.4102 39.7802C10.4028 39.9965 9.36852 40.0871 8.33627 40.0766C7.85779 40.0738 7.37832 40.1471 6.9147 40.2749C7.04051 40.1891 7.16731 40.1033 7.29114 40.0156C7.65074 39.7525 7.99252 39.4666 8.35212 39.2026C9.91437 38.034 11.6886 37.1704 13.5243 36.4737C15.1499 35.8265 16.8627 35.4061 18.6053 35.1841C18.319 35.2555 18.0376 35.3432 17.7573 35.4338V35.4357ZM58.7937 29.1143C58.8829 29.06 58.972 29.0066 59.0602 28.9504C59.2029 28.9294 59.3465 28.9065 59.4882 28.8789C59.2554 28.9552 59.0245 29.0333 58.7937 29.1143ZM53.8177 35.1383C53.7028 35.6158 53.5512 36.0848 53.4046 36.5547C53.2194 37.1523 53.0232 37.7471 52.8469 38.3466C52.6408 39.072 52.5438 39.8355 52.2 40.5189C51.9286 41.0536 51.4897 41.8076 51.2955 42.1307C50.6397 43.1067 49.7591 44.2133 49.2726 45.0464C49.0052 44.3325 48.8724 43.5718 48.6654 42.8417C48.5019 42.2784 48.7456 41.8676 49.0131 41.2824C49.2707 40.6704 49.5748 40.0785 49.8641 39.4809C50.293 38.6745 50.714 37.5469 51.0994 36.9874C51.5947 36.365 52.2109 35.8398 52.7696 35.2708C53.1837 34.8657 53.6265 34.4949 54.103 34.1279C53.9643 34.452 53.8841 34.7952 53.8167 35.1402L53.8177 35.1383ZM64.4097 27.6684C64.377 27.6703 64.3443 27.6722 64.3126 27.6741C64.5702 27.5759 64.8277 27.4749 65.0843 27.3758C65.3439 27.412 65.5985 27.4425 65.8313 27.4692C65.3558 27.5264 64.8812 27.5912 64.4097 27.6684ZM64.4454 26.7905C63.3705 26.5732 62.3828 26.1004 61.3981 25.6477C60.4441 25.2741 59.508 24.8613 58.5946 24.4029C58.0072 24.1274 57.4147 23.8586 56.8788 23.4955C56.437 23.2019 56.0011 22.8893 55.5167 22.507C55.6019 22.5213 55.6871 22.5375 55.7713 22.5528C56.7748 22.7272 57.6485 22.935 58.4103 23.2476C59.3029 23.6079 60.137 24.0902 61.0048 24.5001C61.5061 24.7593 62.0282 24.9786 62.5364 25.2264C62.8999 25.3942 63.2477 25.5934 63.6261 25.7316C64.376 25.9918 65.0754 26.3568 65.8055 26.659C66.0829 26.7781 66.3573 26.9049 66.6099 27.0669C66.6416 27.087 66.6733 27.1079 66.704 27.1289C65.9472 27.0364 65.1873 26.9602 64.4444 26.7905H64.4454ZM72.8371 28.001C71.9247 28.4338 71.0837 29.0772 70.5755 29.9369C70.3585 30.28 70.2763 30.6775 70.1386 31.0521C69.8562 31.6202 69.4323 32.3942 69.1965 32.7516C68.9181 33.1634 68.5744 33.5303 68.2415 33.9011C66.8279 35.5138 65.2547 36.9912 63.8678 38.624C63.7252 37.9091 63.7866 37.2657 64.0451 36.5309C64.3512 35.5844 64.7643 34.6722 65.2626 33.8058C66.1235 32.2016 67.76 30.382 69.7849 29.427C70.734 28.898 71.8167 28.6082 72.7133 27.9944C72.7489 27.9458 72.7529 27.9086 72.737 27.88C72.8688 27.88 73.0005 27.88 73.1323 27.8838C73.0283 27.9086 72.9322 27.9543 72.8371 28.0029V28.001Z" fill="#FF5734"/>
<path d="M21.7764 30.851C22.5689 31.6526 23.5338 32.2646 24.469 32.9003C26.1709 34.1013 28.2651 34.5407 30.2494 35.1183C31.1033 35.3881 31.9453 35.694 32.8132 35.9218C34.9698 36.4508 37.2116 36.3536 39.4138 36.2364C37.6098 36.204 35.7871 36.2183 34.0188 35.8284C32.827 35.5873 31.8384 35.1545 30.711 34.8019C30.3266 34.6865 29.9373 34.5769 29.547 34.4664C29.5024 34.4425 29.4568 34.4187 29.4123 34.3939C29.02 34.2224 28.7822 33.6381 28.6316 33.3922C28.4246 32.9842 28.2255 32.5648 27.9332 32.2055C27.5697 31.848 27.107 31.5993 26.6543 31.361C26.0887 31.0865 25.4755 30.8853 24.8454 30.8062C24.3144 30.7328 23.7904 30.7795 23.3723 30.7519C23.0454 30.7147 22.9612 30.6833 22.5966 30.4926C22.4579 30.4221 22.3341 30.3077 22.1717 30.2925C21.9478 30.2687 21.6545 30.3201 21.5297 30.5174C21.5168 30.5546 21.5238 30.587 21.5505 30.6166C21.6149 30.7042 21.6961 30.7767 21.7754 30.851H21.7764ZM23.4387 31.2027C23.8805 31.198 24.466 31.2056 24.9821 31.3486C25.7647 31.523 26.7623 31.992 27.2735 32.3637C27.8926 32.9299 28.2443 33.7229 28.8823 34.2748C28.8843 34.2757 28.8862 34.2767 28.8872 34.2776C27.639 33.9107 26.4096 33.4884 25.3338 32.7612C24.5284 32.2179 23.932 31.8147 23.1573 31.2008C23.2515 31.2047 23.3456 31.2056 23.4397 31.2027H23.4387Z" fill="#FF5734"/>
</g>
<defs>
<clipPath id="clip0_100_221">
<rect width="81" height="28" fill="white" transform="translate(0 22)"/>
</clipPath>
</defs>
</svg>
